<svg xmlns="http://www.w3.org/2000/svg" viewBox="0 0 700 327" height="100" width="220">
  <g>
    <a href="">
      <rect width="12.86317362921931" height="327.09956226354024" x="258.5500805958621" y="0" fill="#68a5ec" opacity="1"
        stroke-width="0" stroke="transparent" fill-opacity="1" class="rect-qz-0" data-fill-palette-color="primary"
        rx="1%" id="qz-0" data-palette-color="#68a5ec"></rect>
    </a>
  </g>
  <g transform="matrix(1,0,0,1,305.08648362094345,27.258296855295015)">
    <svg viewBox="0 0 395.52 272.5829685529502" height="272.5829685529502" width="395.52">
      <g id="textblocktransform">
        <svg viewBox="0 0 395.52 272.5829685529502" height="272.5829685529502" width="395.52" id="textblock">
          <g>
            <svg viewBox="0 0 395.52 142.63724137931032" height="142.63724137931032" width="395.52">
              <g transform="matrix(1,0,0,1,0,0)">
                <svg width="395.52" viewBox="4.49 -36.57 101.95 36.77" height="142.63724137931032"
                  data-palette-color="#68a5ec">
                  <path
                    d="M4.49 0L4.49-35.99 10.45-35.99 20.12-13.77 20.12-4.74 18.55-4.74 10.45-24.76 10.45 0 4.49 0ZM22.12-13.67L31.79-35.99 37.74-35.99 37.74 0 31.79 0 31.79-24.76 23.73-4.74 22.12-4.74 22.12-13.67ZM63.28-30.42L63.28-30.42Q63.03-30.52 62.69-30.76 62.35-31.01 61.72-31.23 61.08-31.45 60.1-31.59 59.13-31.74 57.61-31.64L57.61-31.64 57.61-36.57Q59.76-36.52 61.98-36.11 64.21-35.69 65.57-34.81L65.57-34.81Q65.28-34.18 64.89-33.42 64.5-32.67 64.16-32.01 63.82-31.35 63.57-30.91 63.33-30.47 63.28-30.42ZM46.43-26.51L46.43-26.51Q46.43-28.66 47.17-30.37 47.9-32.08 49.14-33.37 50.39-34.67 52.07-35.42 53.76-36.18 55.61-36.43L55.61-36.43 55.61-31.3Q54.05-30.76 53.02-29.42 52-28.08 52-26.71L52-26.71Q52-24.8 53.02-23.63 54.05-22.46 55.61-21.58L55.61-21.58 55.61-16.02Q54-16.8 52.39-17.7 50.78-18.6 49.46-19.82 48.14-21.04 47.29-22.66 46.43-24.27 46.43-26.51ZM46.19-2.39L47.21-6.59Q47.9-6.2 48.95-5.83 50-5.47 51.12-5.15 52.24-4.83 53.37-4.64 54.49-4.44 55.47-4.44L55.47-4.44 55.61-4.44 55.61 0.2 55.52 0.2Q54.34 0.2 53.1 0.07 51.85-0.05 50.58-0.34 49.31-0.63 48.17-1.15 47.02-1.66 46.19-2.39L46.19-2.39ZM57.61-14.89L57.61-20.61Q59.23-19.87 60.91-19.04 62.6-18.21 63.96-17.02 65.33-15.82 66.21-14.11 67.09-12.4 67.09-9.86L67.09-9.86Q67.09-8.11 66.43-6.45 65.77-4.79 64.57-3.44 63.38-2.1 61.62-1.17 59.86-0.24 57.61 0.05L57.61 0.05 57.61-4.64Q61.62-5.62 61.62-9.96L61.62-9.96Q61.62-11.67 60.5-12.79 59.37-13.92 57.61-14.89L57.61-14.89ZM73.19 0L73.19-35.99 79.15-35.99 88.81-13.77 88.81-4.74 87.25-4.74 79.15-24.76 79.15 0 73.19 0ZM90.82-13.67L100.48-35.99 106.44-35.99 106.44 0 100.48 0 100.48-24.76 92.43-4.74 90.82-4.74 90.82-13.67Z"
                    opacity="1" transform="matrix(1,0,0,1,0,0)" fill="#68a5ec" class="wordmark-text-0"
                    data-fill-palette-color="primary" id="text-0">
                  </path>
                </svg>
              </g>
            </svg>
          </g>
          <g transform="matrix(1,0,0,1,75.14880000000001,176.3104707751724)">
            <svg viewBox="0 0 245.22239999999996 96.27249777777777" height="96.27249777777777"
              width="245.22239999999996">
              <g transform="matrix(1,0,0,1,0,0)">
                <svg width="245.22239999999996" viewBox="2.81 -35.64 92.28 36.230000000000004"
                  height="96.27249777777777" data-palette-color="#68a5ec">
                  <path
                    d="M27.1-4.76L28.25-1Q25.98-0.29 23.45 0.15 20.92 0.59 17.9 0.59L17.9 0.59Q10.42 0.59 6.62-3.88 2.81-8.35 2.81-17.04L2.81-17.04Q2.81-26.27 6.62-30.96 10.42-35.64 17.9-35.64L17.9-35.64Q20.73-35.64 22.99-35.16 25.24-34.67 27.34-33.89L27.34-33.89 26.07-30.27Q25.07-30.64 24.1-30.93 23.12-31.23 22.13-31.42 21.14-31.62 20.09-31.71 19.04-31.81 17.9-31.81L17.9-31.81Q15.19-31.81 13.23-30.85 11.28-29.88 10.01-28.04 8.74-26.2 8.13-23.55 7.52-20.9 7.52-17.53L7.52-17.53Q7.52-14.06 8.13-11.4 8.74-8.74 10.01-6.92 11.28-5.1 13.23-4.17 15.19-3.25 17.9-3.25L17.9-3.25Q20.39-3.25 22.63-3.66 24.88-4.08 27.1-4.76L27.1-4.76ZM35.84-20.9L35.84-20.9 34.76-24.32Q38.86-25.95 43.36-25.95L43.36-25.95Q47.29-25.95 49.36-24.63L49.36-24.63Q51.73-23.12 51.73-19.48L51.73-19.48 51.73-9.5Q51.73-7.5 51.78-5.4L51.78-5.4Q51.8-4.15 52.02-2.81L52.02-2.81Q52.22-1.54 52.54-0.39L52.54-0.39 48.53 0.49Q47.97-1.15 47.82-3.17L47.82-3.17 47.34-3.22Q44.31 0.59 39.62 0.59L39.62 0.59Q36.2 0.59 34.13-1.31 32.05-3.2 32.05-6.64L32.05-6.64Q32.05-9.2 33.19-10.84 34.32-12.48 36.4-13.6L36.4-13.6Q39.67-15.38 45.55-15.38L45.55-15.38Q46.34-15.38 47.65-15.33L47.65-15.33 47.65-19.04Q47.65-20.8 46.58-21.58 45.51-22.36 43.21-22.36L43.21-22.36Q39.87-22.36 35.84-20.9ZM47.65-7.13L47.65-7.13 47.65-12.26Q46.99-12.3 45.73-12.3L45.73-12.3Q43.58-12.3 41.77-11.94L41.77-11.94Q39.08-11.4 37.61-10.24 36.13-9.08 36.13-6.91L36.13-6.91Q36.13-3 40.38-3L40.38-3Q42.58-3 44.48-4.17L44.48-4.17Q46.04-5.15 47.65-7.13ZM64.11-19.51L64.33-19.51Q65.08-21.02 65.95-22.24 66.82-23.46 67.87-24.32L67.87-24.32Q68.82-25.15 69.97-25.55 71.11-25.95 72.58-25.95L72.58-25.95Q73.07-25.95 73.71-25.9 74.36-25.85 74.95-25.73L74.95-25.73Q74.85-24.51 74.71-23.44 74.58-22.36 74.36-21.26L74.36-21.26Q73.14-21.48 72.13-21.58 71.11-21.68 70.21-21.53L70.21-21.53Q69.14-21.34 68.34-20.81 67.55-20.29 66.88-19.42 66.21-18.55 65.57-17.35 64.94-16.14 64.18-14.58L64.18-14.58 64.18 0 59.98 0 59.98-15.65Q59.98-17.19 59.94-18.36 59.91-19.53 59.8-20.59 59.69-21.66 59.47-22.69 59.25-23.73 58.88-25L58.88-25Q59.91-25.27 60.9-25.49 61.88-25.71 62.91-25.9L62.91-25.9Q63.25-24.93 63.46-24.17 63.67-23.41 63.79-22.69 63.91-21.97 63.97-21.23 64.03-20.48 64.11-19.51L64.11-19.51ZM82.34-25.39L82.34-31.2 86.54-31.2 86.54-25.39 95.09-25.39 95.09-21.85 86.54-21.85 86.54-7.28Q86.54-5.81 86.63-5.04 86.71-4.27 87.05-3.83L87.05-3.83Q87.69-2.95 89.62-2.95L89.62-2.95Q90.69-2.95 91.69-3.17L91.69-3.17Q92.72-3.39 93.57-3.66L93.57-3.66Q94.26-2.17 94.82-0.39L94.82-0.39Q91.94 0.59 89.01 0.59L89.01 0.59Q86.88 0.59 85.6 0.11 84.32-0.37 83.59-1.44L83.59-1.44Q82.83-2.56 82.59-4.13 82.34-5.69 82.34-8.45L82.34-8.45 82.34-21.85 78.68-21.85 78.68-25.39 82.34-25.39Z"
                    opacity="1" transform="matrix(1,0,0,1,0,0)" fill="#68a5ec" class="slogan-text-1"
                    data-fill-palette-color="secondary" id="text-1">
                  </path>
                </svg>
              </g>
            </svg>
          </g>
        </svg>
      </g>
    </svg>
  </g>
  <g transform="matrix(1,0,0,1,0,29.908822293176343)">
    <svg xmlns="http://www.w3.org/2000/svg" xmlns:xlink="http://www.w3.org/1999/xlink"
      xmlns:a="http://ns.adobe.com/AdobeSVGViewerExtensions/3.0/" version="1.1" x="0" y="0"
      viewBox="0 0 31.829 37.83100000000001" enable-background="new -4 -1.012 40 40" xml:space="preserve"
      height="267.28191767718755" width="224.8768512" class="icon-icon-0" data-fill-palette-color="accent" id="icon-0">
      <path
        d="M14.325 0H4.338C1.463 0 0 1.463 0 4.338v18.615c0 2.875 1.463 4.338 4.338 4.338h23.153c2.875 0 4.338-1.463 4.338-4.338v-7.314c-2.369 2.169-5.195 3.278-8.472 3.278-3.331 0-6.206-1.109-8.576-3.328-2.373-2.221-3.531-4.894-3.531-8.021C11.25 4.642 12.26 2.121 14.325 0L14.325 0z"
        fill="#68a5ec" data-fill-palette-color="accent"></path>
      <path
        d="M29.055 2.221C27.543 0.808 25.727 0.052 23.606 0h-0.453c-2.117 0.052-3.934 0.757-5.497 2.221S15.287 5.5 15.287 7.567c0 2.067 0.806 3.883 2.369 5.346 1.563 1.463 3.48 2.221 5.701 2.221 2.218 0 4.134-0.757 5.697-2.221 1.564-1.463 2.373-3.279 2.373-5.346C31.428 5.5 30.619 3.684 29.055 2.221L29.055 2.221z"
        fill="#68a5ec" data-fill-palette-color="accent">
      </path>
      <path
        d="M26.734 29.913c-0.907-0.906-2.018-1.362-3.276-1.362-1.263 0-2.373 0.456-3.28 1.362-0.909 0.908-1.362 2.018-1.362 3.28 0 1.259 0.453 2.369 1.362 3.279 0.907 0.906 2.018 1.359 3.28 1.359 1.259 0 2.369-0.453 3.276-1.359 0.909-0.91 1.362-2.021 1.362-3.279C28.097 31.93 27.644 30.821 26.734 29.913L26.734 29.913z"
        fill="#68a5ec" data-fill-palette-color="accent">
      </path>
      <path
        d="M11.603 29.913c-0.906-0.906-2.017-1.362-3.279-1.362-1.259 0-2.37 0.456-3.276 1.362-0.91 0.908-1.363 2.018-1.363 3.28 0 1.259 0.453 2.369 1.363 3.279 0.906 0.906 2.017 1.359 3.276 1.359 1.262 0 2.373-0.453 3.279-1.359 0.909-0.91 1.362-2.021 1.362-3.279C12.965 31.93 12.512 30.821 11.603 29.913L11.603 29.913z"
        fill="#68a5ec" data-fill-palette-color="accent">
      </path>
    </svg>
  </g>
</svg>