<svg xmlns="http://www.w3.org/2000/svg" version="1.1" xmlns:xlink="http://www.w3.org/1999/xlink" xmlns:svgjs="http://svgjs.dev/svgjs" width="2000" height="919" viewBox="0 0 2000 919"><g transform="matrix(1,0,0,1,-1.2121212121212466,-0.12427258885992387)"><svg viewBox="0 0 396 182" data-background-color="#ffffff" preserveAspectRatio="xMidYMid meet" height="919" width="2000" xmlns="http://www.w3.org/2000/svg" xmlns:xlink="http://www.w3.org/1999/xlink"><g id="tight-bounds" transform="matrix(1,0,0,1,0.2400000000000091,0.024611111177918588)"><svg viewBox="0 0 395.52 181.95077777764416" height="181.95077777764416" width="395.52"><g><svg viewBox="0 0 395.52 181.95077777764416" height="181.95077777764416" width="395.52"><g><svg viewBox="0 0 698.4023064840846 321.2855048201856" height="181.95077777764416" width="395.52"><g><rect width="12.509690981746585" height="321.2855048201856" x="257.6247333511691" y="0" fill="#68a5ec" opacity="1" stroke-width="0" stroke="transparent" fill-opacity="1" class="rect-qz-0" data-fill-palette-color="primary" rx="1%" id="qz-0" data-palette-color="#68a5ec"></rect></g><g transform="matrix(1,0,0,1,302.8823064840847,26.773792068348797)"><svg viewBox="0 0 395.52 267.737920683488" height="267.737920683488" width="395.52"><g id="textblocktransform"><svg viewBox="0 0 395.52 267.737920683488" height="267.737920683488" width="395.52" id="textblock"><g><svg viewBox="0 0 395.52 138.7175407545412" height="138.7175407545412" width="395.52"><g transform="matrix(1,0,0,1,0,0)"><svg width="395.52" viewBox="4.49 -36.57 104.83 36.77" height="138.7175407545412" data-palette-color="#68a5ec"><path d="M4.49 0L4.49-35.99 10.45-35.99 20.12-13.77 20.12-4.74 18.55-4.74 10.45-24.76 10.45 0 4.49 0ZM22.12-13.67L31.79-35.99 37.74-35.99 37.74 0 31.79 0 31.79-24.76 23.73-4.74 22.12-4.74 22.12-13.67ZM46.73 0L46.73-35.99 52.68-35.99 62.35-13.77 62.35-4.74 60.79-4.74 52.68-24.76 52.68 0 46.73 0ZM64.35-13.67L74.02-35.99 79.98-35.99 79.98 0 74.02 0 74.02-24.76 65.96-4.74 64.35-4.74 64.35-13.67ZM105.51-30.42L105.51-30.42Q105.27-30.52 104.93-30.76 104.58-31.01 103.95-31.23 103.32-31.45 102.34-31.59 101.36-31.74 99.85-31.64L99.85-31.64 99.85-36.57Q102-36.52 104.22-36.11 106.44-35.69 107.81-34.81L107.81-34.81Q107.51-34.18 107.12-33.42 106.73-32.67 106.39-32.01 106.05-31.35 105.81-30.91 105.56-30.47 105.51-30.42ZM88.67-26.51L88.67-26.51Q88.67-28.66 89.4-30.37 90.13-32.08 91.38-33.37 92.62-34.67 94.31-35.42 95.99-36.18 97.85-36.43L97.85-36.43 97.85-31.3Q96.28-30.76 95.26-29.42 94.23-28.08 94.23-26.71L94.23-26.71Q94.23-24.8 95.26-23.63 96.28-22.46 97.85-21.58L97.85-21.58 97.85-16.02Q96.24-16.8 94.62-17.7 93.01-18.6 91.69-19.82 90.38-21.04 89.52-22.66 88.67-24.27 88.67-26.51ZM88.42-2.39L89.45-6.59Q90.13-6.2 91.18-5.83 92.23-5.47 93.35-5.15 94.48-4.83 95.6-4.64 96.72-4.44 97.7-4.44L97.7-4.44 97.85-4.44 97.85 0.2 97.75 0.2Q96.58 0.2 95.33 0.07 94.09-0.05 92.82-0.34 91.55-0.63 90.4-1.15 89.25-1.66 88.42-2.39L88.42-2.39ZM99.85-14.89L99.85-20.61Q101.46-19.87 103.14-19.04 104.83-18.21 106.2-17.02 107.56-15.82 108.44-14.11 109.32-12.4 109.32-9.86L109.32-9.86Q109.32-8.11 108.66-6.45 108-4.79 106.81-3.44 105.61-2.1 103.85-1.17 102.09-0.24 99.85 0.05L99.85 0.05 99.85-4.64Q103.85-5.62 103.85-9.96L103.85-9.96Q103.85-11.67 102.73-12.79 101.61-13.92 99.85-14.89L99.85-14.89Z" opacity="1" transform="matrix(1,0,0,1,0,0)" fill="#68a5ec" class="wordmark-text-0" data-fill-palette-color="primary" id="text-0"></path></svg></g></svg></g><g transform="matrix(1,0,0,1,75.14880000000001,171.46542290571028)"><svg viewBox="0 0 245.22239999999996 96.27249777777777" height="96.27249777777777" width="245.22239999999996"><g transform="matrix(1,0,0,1,0,0)"><svg width="245.22239999999996" viewBox="2.81 -35.64 92.28 36.230000000000004" height="96.27249777777777" data-palette-color="#68a5ec"><path d="M27.1-4.76L28.25-1Q25.98-0.29 23.45 0.15 20.92 0.59 17.9 0.59L17.9 0.59Q10.42 0.59 6.62-3.88 2.81-8.35 2.81-17.04L2.81-17.04Q2.81-26.27 6.62-30.96 10.42-35.64 17.9-35.64L17.9-35.64Q20.73-35.64 22.99-35.16 25.24-34.67 27.34-33.89L27.34-33.89 26.07-30.27Q25.07-30.64 24.1-30.93 23.12-31.23 22.13-31.42 21.14-31.62 20.09-31.71 19.04-31.81 17.9-31.81L17.9-31.81Q15.19-31.81 13.23-30.85 11.28-29.88 10.01-28.04 8.74-26.2 8.13-23.55 7.52-20.9 7.52-17.53L7.52-17.53Q7.52-14.06 8.13-11.4 8.74-8.74 10.01-6.92 11.28-5.1 13.23-4.17 15.19-3.25 17.9-3.25L17.9-3.25Q20.39-3.25 22.63-3.66 24.88-4.08 27.1-4.76L27.1-4.76ZM35.84-20.9L35.84-20.9 34.76-24.32Q38.86-25.95 43.36-25.95L43.36-25.95Q47.29-25.95 49.36-24.63L49.36-24.63Q51.73-23.12 51.73-19.48L51.73-19.48 51.73-9.5Q51.73-7.5 51.78-5.4L51.78-5.4Q51.8-4.15 52.02-2.81L52.02-2.81Q52.22-1.54 52.54-0.39L52.54-0.39 48.53 0.49Q47.97-1.15 47.82-3.17L47.82-3.17 47.34-3.22Q44.31 0.59 39.62 0.59L39.62 0.59Q36.2 0.59 34.13-1.31 32.05-3.2 32.05-6.64L32.05-6.64Q32.05-9.2 33.19-10.84 34.32-12.48 36.4-13.6L36.4-13.6Q39.67-15.38 45.55-15.38L45.55-15.38Q46.34-15.38 47.65-15.33L47.65-15.33 47.65-19.04Q47.65-20.8 46.58-21.58 45.51-22.36 43.21-22.36L43.21-22.36Q39.87-22.36 35.84-20.9ZM47.65-7.13L47.65-7.13 47.65-12.26Q46.99-12.3 45.73-12.3L45.73-12.3Q43.58-12.3 41.77-11.94L41.77-11.94Q39.08-11.4 37.61-10.24 36.13-9.08 36.13-6.91L36.13-6.91Q36.13-3 40.38-3L40.38-3Q42.58-3 44.48-4.17L44.48-4.17Q46.04-5.15 47.65-7.13ZM64.11-19.51L64.33-19.51Q65.08-21.02 65.95-22.24 66.82-23.46 67.87-24.32L67.87-24.32Q68.82-25.15 69.97-25.55 71.11-25.95 72.58-25.95L72.58-25.95Q73.07-25.95 73.71-25.9 74.36-25.85 74.95-25.73L74.95-25.73Q74.85-24.51 74.71-23.44 74.58-22.36 74.36-21.26L74.36-21.26Q73.14-21.48 72.13-21.58 71.11-21.68 70.21-21.53L70.21-21.53Q69.14-21.34 68.34-20.81 67.55-20.29 66.88-19.42 66.21-18.55 65.57-17.35 64.94-16.14 64.18-14.58L64.18-14.58 64.18 0 59.98 0 59.98-15.65Q59.98-17.19 59.94-18.36 59.91-19.53 59.8-20.59 59.69-21.66 59.47-22.69 59.25-23.73 58.88-25L58.88-25Q59.91-25.27 60.9-25.49 61.88-25.71 62.91-25.9L62.91-25.9Q63.25-24.93 63.46-24.17 63.67-23.41 63.79-22.69 63.91-21.97 63.97-21.23 64.03-20.48 64.11-19.51L64.11-19.51ZM82.34-25.39L82.34-31.2 86.54-31.2 86.54-25.39 95.09-25.39 95.09-21.85 86.54-21.85 86.54-7.28Q86.54-5.81 86.63-5.04 86.71-4.27 87.05-3.83L87.05-3.83Q87.69-2.95 89.62-2.95L89.62-2.95Q90.69-2.95 91.69-3.17L91.69-3.17Q92.72-3.39 93.57-3.66L93.57-3.66Q94.26-2.17 94.82-0.39L94.82-0.39Q91.94 0.59 89.01 0.59L89.01 0.59Q86.88 0.59 85.6 0.11 84.32-0.37 83.59-1.44L83.59-1.44Q82.83-2.56 82.59-4.13 82.34-5.69 82.34-8.45L82.34-8.45 82.34-21.85 78.68-21.85 78.68-25.39 82.34-25.39Z" opacity="1" transform="matrix(1,0,0,1,0,0)" fill="#68a5ec" class="slogan-text-1" data-fill-palette-color="secondary" id="text-1"></path></svg></g></svg></g></svg></g></svg></g><g transform="matrix(1,0,0,1,0,27.001793571499036)"><svg viewBox="0 0 224.8768512 267.28191767718755" height="267.28191767718755" width="224.8768512"><g><svg xmlns="http://www.w3.org/2000/svg" xmlns:xlink="http://www.w3.org/1999/xlink" xmlns:a="http://ns.adobe.com/AdobeSVGViewerExtensions/3.0/" version="1.1" x="0" y="0" viewBox="0 0 31.829 37.83100000000001" enable-background="new -4 -1.012 40 40" xml:space="preserve" height="267.28191767718755" width="224.8768512" class="icon-icon-0" data-fill-palette-color="accent" id="icon-0"><path d="M14.325 0H4.338C1.463 0 0 1.463 0 4.338v18.615c0 2.875 1.463 4.338 4.338 4.338h23.153c2.875 0 4.338-1.463 4.338-4.338v-7.314c-2.369 2.169-5.195 3.278-8.472 3.278-3.331 0-6.206-1.109-8.576-3.328-2.373-2.221-3.531-4.894-3.531-8.021C11.25 4.642 12.26 2.121 14.325 0L14.325 0z" fill="#68a5ec" data-fill-palette-color="accent"></path><path d="M29.055 2.221C27.543 0.808 25.727 0.052 23.606 0h-0.453c-2.117 0.052-3.934 0.757-5.497 2.221S15.287 5.5 15.287 7.567c0 2.067 0.806 3.883 2.369 5.346 1.563 1.463 3.48 2.221 5.701 2.221 2.218 0 4.134-0.757 5.697-2.221 1.564-1.463 2.373-3.279 2.373-5.346C31.428 5.5 30.619 3.684 29.055 2.221L29.055 2.221z" fill="#68a5ec" data-fill-palette-color="accent"></path><path d="M26.734 29.913c-0.907-0.906-2.018-1.362-3.276-1.362-1.263 0-2.373 0.456-3.28 1.362-0.909 0.908-1.362 2.018-1.362 3.28 0 1.259 0.453 2.369 1.362 3.279 0.907 0.906 2.018 1.359 3.28 1.359 1.259 0 2.369-0.453 3.276-1.359 0.909-0.91 1.362-2.021 1.362-3.279C28.097 31.93 27.644 30.821 26.734 29.913L26.734 29.913z" fill="#68a5ec" data-fill-palette-color="accent"></path><path d="M11.603 29.913c-0.906-0.906-2.017-1.362-3.279-1.362-1.259 0-2.37 0.456-3.276 1.362-0.91 0.908-1.363 2.018-1.363 3.28 0 1.259 0.453 2.369 1.363 3.279 0.906 0.906 2.017 1.359 3.276 1.359 1.262 0 2.373-0.453 3.279-1.359 0.909-0.91 1.362-2.021 1.362-3.279C12.965 31.93 12.512 30.821 11.603 29.913L11.603 29.913z" fill="#68a5ec" data-fill-palette-color="accent"></path></svg></g></svg></g></svg></g></svg></g><defs></defs></svg><rect width="395.52" height="181.95077777764416" fill="none" stroke="none" visibility="hidden"></rect></g></svg></g></svg>